<?xml version="1.0" encoding="UTF-8"?>
<svg version="1.1" xmlns="http://www.w3.org/2000/svg" width="500" height="500">
<path d="M0 0 C165 0 330 0 500 0 C500 165 500 330 500 500 C335 500 170 500 0 500 C0 335 0 170 0 0 Z " fill="#120200" transform="translate(0,0)"/>
<path d="M0 0 C1.31871094 -0.00773438 2.63742187 -0.01546875 3.99609375 -0.0234375 C7.75476691 0.39647998 8.91191445 0.80601416 11.5625 3.375 C12.05469131 5.41520214 12.05469131 5.41520214 12.04351807 7.79789734 C12.04901672 8.70233582 12.05451538 9.60677429 12.06018066 10.53862 C12.04579956 11.52836319 12.03141846 12.51810638 12.01660156 13.5378418 C12.01718567 14.58191193 12.01776978 15.62598206 12.01837158 16.70169067 C12.01558045 20.15953592 11.9844388 23.61652373 11.953125 27.07421875 C11.9456663 29.46889271 11.93997162 31.86357277 11.93597412 34.258255 C11.92068874 40.56638387 11.88138142 46.87414537 11.8371582 53.18212891 C11.79626837 59.61681142 11.77797653 66.05155319 11.7578125 72.48632812 C11.71489039 85.11604232 11.64737059 97.74550164 11.5625 110.375 C10.97605713 110.05047852 10.38961426 109.72595703 9.78540039 109.39160156 C6.51593778 107.89637451 3.57226061 108.11103222 0 108.125 C-0.67224609 108.11726563 -1.34449219 108.10953125 -2.03710938 108.1015625 C-5.72172836 108.11619852 -7.29365148 108.27910098 -10.4375 110.375 C-10.50755235 96.4757822 -10.56027022 82.57659173 -10.59293652 68.6772337 C-10.60861233 62.22364377 -10.62988571 55.77017219 -10.66381836 49.31665039 C-10.69634324 43.09212387 -10.71433857 36.86771138 -10.72213173 30.64310646 C-10.72768759 28.26477067 -10.73853637 25.88644133 -10.75469017 23.50815392 C-10.77637281 20.18457783 -10.77947073 16.86147688 -10.77807617 13.5378418 C-10.788862 12.5480986 -10.79964783 11.55835541 -10.8107605 10.53862 C-10.80663651 9.63418152 -10.80251251 8.72974304 -10.79826355 7.79789734 C-10.80102893 7.01160792 -10.80379431 6.22531851 -10.80664349 5.41520214 C-9.75097113 -0.41934483 -4.94036124 -0.08526031 0 0 Z " fill="#FBCA6B" transform="translate(274.4375,144.625)"/>
<path d="M0 0 C1.97806641 -0.02900391 1.97806641 -0.02900391 3.99609375 -0.05859375 C7.5625 0.4375 7.5625 0.4375 9.75701904 1.82623291 C12.57994834 5.90903552 12.0873222 9.86437777 12.01660156 14.71386719 C12.01718567 15.75808334 12.01776978 16.8022995 12.01837158 17.87815857 C12.01558428 21.33056854 11.98446052 24.7821158 11.953125 28.234375 C11.94566494 30.62761971 11.9399709 33.02087053 11.93597412 35.41412354 C11.92069944 41.71401831 11.88140123 48.01354438 11.8371582 54.31329346 C11.7962454 60.74136365 11.7779716 67.1694934 11.7578125 73.59765625 C11.71490925 86.21109483 11.64740385 98.82427781 11.5625 111.4375 C10.97605713 110.94999268 10.38961426 110.46248535 9.78540039 109.96020508 C6.5410972 107.73783067 3.88404626 108.07564262 0 108.125 C-0.67224609 108.12177734 -1.34449219 108.11855469 -2.03710938 108.11523438 C-5.70708778 108.15532351 -7.30992617 108.35245078 -10.4375 110.4375 C-10.50755235 96.5382822 -10.56027022 82.63909173 -10.59293652 68.7397337 C-10.60861233 62.28614377 -10.62988571 55.83267219 -10.66381836 49.37915039 C-10.69634324 43.15462387 -10.71433857 36.93021138 -10.72213173 30.70560646 C-10.72768759 28.32727067 -10.73853637 25.94894133 -10.75469017 23.57065392 C-10.77637281 20.24707783 -10.77947073 16.92397688 -10.77807617 13.6003418 C-10.788862 12.6105986 -10.79964783 11.62085541 -10.8107605 10.60112 C-10.80663651 9.69668152 -10.80251251 8.79224304 -10.79826355 7.86039734 C-10.80102893 7.07410792 -10.80379431 6.28781851 -10.80664349 5.47770214 C-9.7545762 -0.33692012 -4.93552896 -0.05205256 0 0 Z " fill="#FACA6B" transform="translate(224.4375,144.5625)"/>
<path d="M0 0 C8.6213402 -0.31350328 16.07505673 0.39409355 23 6 C26.568603 10.0608241 27.12093653 13.46401545 27.2109375 18.76953125 C27.23929687 19.90583984 27.26765625 21.04214844 27.296875 22.21289062 C27.34870069 24.60075945 27.39304739 26.98880302 27.4296875 29.37695312 C27.62009469 36.39425142 27.79360897 41.79360897 33 47 C35.31 47.33 37.62 47.66 40 48 C40 52.95 40 57.9 40 63 C38.741875 63.2475 37.48375 63.495 36.1875 63.75 C33.31027709 64.46676401 32.20347975 64.79652025 30.0625 66.9375 C28.19079724 70.57080537 27.87020485 73.45321124 27.82421875 77.48046875 C27.80037109 78.56263672 27.77652344 79.64480469 27.75195312 80.75976562 C27.70935511 83.02520567 27.67790534 85.29088578 27.65820312 87.55664062 C27.45195216 95.65798665 26.17508935 100.83953809 21.1875 107.375 C14.85782512 112.0770442 7.52735787 111.16915411 0 111 C0 106.38 0 101.76 0 97 C1.629375 96.71125 3.25875 96.4225 4.9375 96.125 C7.65092125 95.68931344 7.65092125 95.68931344 10 95 C11.56182992 91.87634016 11.29182025 88.49869812 11.4375 85.0625 C12.44376122 65.90320576 12.44376122 65.90320576 18 59 C18.5775 58.21625 19.155 57.4325 19.75 56.625 C20.1625 56.08875 20.575 55.5525 21 55 C20.38511719 54.31164062 20.38511719 54.31164062 19.7578125 53.609375 C19.21898437 52.99578125 18.68015625 52.3821875 18.125 51.75 C17.59132813 51.14671875 17.05765625 50.5434375 16.5078125 49.921875 C11.19279108 43.14728811 11.82447313 34.25965589 11.4375 26 C11.39431641 25.12988281 11.35113281 24.25976562 11.30664062 23.36328125 C11.20175782 21.24231781 11.10049925 19.12117567 11 17 C7.36383344 15.0210244 4.11574371 14.4748935 0 14 C0 9.38 0 4.76 0 0 Z " fill="#E8592C" transform="translate(297,148)"/>
<path d="M0 0 C1.27230469 0.00902344 2.54460937 0.01804688 3.85546875 0.02734375 C5.31919922 0.04474609 5.31919922 0.04474609 6.8125 0.0625 C6.8125 4.3525 6.8125 8.6425 6.8125 13.0625 C5.348125 13.371875 3.88375 13.68125 2.375 14 C-0.69199556 14.47409649 -0.69199556 14.47409649 -3.1875 16.0625 C-3.30186517 18.14013385 -3.40909745 20.21844247 -3.47753906 22.2980957 C-4.23641967 45.31529353 -4.23641967 45.31529353 -12.1875 53.0625 C-12.8475 53.7225 -13.5075 54.3825 -14.1875 55.0625 C-13.424375 55.805 -12.66125 56.5475 -11.875 57.3125 C-3.61658557 65.76297058 -3.97061528 76.14050254 -3.61669922 87.44995117 C-3.58986627 91.71599116 -3.58986627 91.71599116 -1.1875 95.0625 C1.46787372 95.62770003 4.10394713 95.80038198 6.8125 96.0625 C6.8125 100.6825 6.8125 105.3025 6.8125 110.0625 C-0.59254638 110.29758084 -7.58125083 110.25760819 -14.0625 106.3125 C-21.54370696 98.39122204 -20.44346752 87.56205608 -20.70507812 77.38476562 C-20.73923828 76.39025391 -20.77339844 75.39574219 -20.80859375 74.37109375 C-20.8336499 73.47189209 -20.85870605 72.57269043 -20.88452148 71.64624023 C-21.21851505 68.79800988 -21.90767554 66.62552206 -23.1875 64.0625 C-25.34574934 63.03431614 -25.34574934 63.03431614 -27.8125 62.75 C-29.25625 62.523125 -30.7 62.29625 -32.1875 62.0625 C-32.1875 57.4425 -32.1875 52.8225 -32.1875 48.0625 C-30.3003125 47.4746875 -30.3003125 47.4746875 -28.375 46.875 C-25.3452058 45.74016542 -24.32122302 45.23073219 -22.25 42.625 C-20.55553998 38.53836112 -20.05864029 35.05522428 -19.9765625 30.6328125 C-19.94820312 29.58996094 -19.91984375 28.54710937 -19.890625 27.47265625 C-19.83873145 25.29053254 -19.79440421 23.10821518 -19.7578125 20.92578125 C-19.56590073 14.4407626 -19.25408375 9.42456187 -14.6875 4.41796875 C-9.5707001 0.43379383 -6.40487905 -0.05876036 0 0 Z " fill="#E7582B" transform="translate(195.1875,148.9375)"/>
<path d="M0 0 C1.09924805 0.00483398 1.09924805 0.00483398 2.22070312 0.00976562 C2.94966797 -0.00634766 3.67863281 -0.02246094 4.4296875 -0.0390625 C9.68210183 -0.04387681 9.68210183 -0.04387681 11.99458313 1.36470032 C13.98837915 4.39351093 13.67504964 7.5019694 13.6237793 11.0065918 C13.62443642 12.17767738 13.62443642 12.17767738 13.62510681 13.37242126 C13.62301637 15.95361315 13.59967373 18.53415592 13.57617188 21.11523438 C13.57057682 22.90456284 13.56630629 24.69389589 13.56330872 26.48323059 C13.5518528 31.19335614 13.52237924 35.90320429 13.48919678 40.61322021 C13.45851196 45.41919197 13.44480678 50.22520853 13.4296875 55.03125 C13.39751023 64.46171044 13.34630487 73.89196497 13.28320312 83.32226562 C11.79820312 82.82726562 11.79820312 82.82726562 10.28320312 82.32226562 C7.7681049 82.1749851 5.29874677 82.09143167 2.78320312 82.07226562 C2.10644531 82.05164063 1.4296875 82.03101563 0.73242188 82.00976562 C-3.19065894 81.90146789 -3.19065894 81.90146789 -6.43359375 83.84277344 C-7.0687793 84.57512207 -7.0687793 84.57512207 -7.71679688 85.32226562 C-7.76306817 74.53496937 -7.79863951 63.74769659 -7.82042122 52.96032143 C-7.83087354 47.95170215 -7.84505908 42.9431506 -7.86767578 37.93457031 C-7.88935262 33.1040823 -7.90135458 28.27365956 -7.90655136 23.44312668 C-7.91025642 21.59706977 -7.91749112 19.75101657 -7.92825699 17.90498734 C-7.94270344 15.32606438 -7.94477771 12.74741371 -7.94384766 10.16845703 C-7.95103821 9.39953629 -7.95822876 8.63061554 -7.96563721 7.83839417 C-7.93962273 1.20427305 -6.63700067 0.06704041 0 0 Z " fill="#F5F5E8" transform="translate(247.716796875,169.677734375)"/>
<path d="M0 0 C2.64 0 5.28 0 8 0 C8 2.31 8 4.62 8 7 C9.65 7 11.3 7 13 7 C13 8.98 13 10.96 13 13 C11.35 13 9.7 13 8 13 C8.495 18.94 8.495 18.94 9 25 C10.32 25.33 11.64 25.66 13 26 C13 28.31 13 30.62 13 33 C5.88442211 33.48241206 5.88442211 33.48241206 2.25 31.5 C-0.37015627 28.58871525 -0.52711831 26.81820554 -0.43945312 22.9609375 C-0.37661133 21.86652344 -0.37661133 21.86652344 -0.3125 20.75 C-0.28994141 20.00492187 -0.26738281 19.25984375 -0.24414062 18.4921875 C-0.18543561 16.660591 -0.09575757 14.83003347 0 13 C-0.99 13 -1.98 13 -3 13 C-3.33 11.68 -3.66 10.36 -4 9 C-4.44915771 10.04978027 -4.89831543 11.09956055 -5.36108398 12.18115234 C-7.02469927 16.06894617 -8.68910831 19.95639974 -10.35375977 23.84375 C-11.07468033 25.52757619 -11.79538442 27.21149508 -12.51586914 28.89550781 C-13.55037707 31.31339421 -14.58565823 33.73094822 -15.62109375 36.1484375 C-15.94403915 36.9036972 -16.26698456 37.65895691 -16.59971619 38.43710327 C-18.88612829 43.77225659 -18.88612829 43.77225659 -20 46 C-22.64 46 -25.28 46 -28 46 C-27.58609915 42.52323283 -27.02896088 40.05458012 -25.375 36.9375 C-23.50957763 32.95227948 -24.39548594 30.67968923 -25.84790039 26.64404297 C-26.17781982 25.85143066 -26.50773926 25.05881836 -26.84765625 24.2421875 C-27.20537109 23.36949219 -27.56308594 22.49679687 -27.93164062 21.59765625 C-28.68888915 19.77450523 -29.44670668 17.95159045 -30.20507812 16.12890625 C-30.56150391 15.25878906 -30.91792969 14.38867188 -31.28515625 13.4921875 C-31.77834351 12.30665283 -31.77834351 12.30665283 -32.28149414 11.09716797 C-33 9 -33 9 -33 6 C-30.03 6 -27.06 6 -24 6 C-22.02 10.95 -20.04 15.9 -18 21 C-16.02 16.05 -14.04 11.1 -12 6 C-8.04 6 -4.08 6 0 6 C0 4.02 0 2.04 0 0 Z " fill="#E7E6DA" transform="translate(295,285)"/>
<path d="M0 0 C2.375 1 2.375 1 4 2 C4.33 1.34 4.66 0.68 5 0 C7.64 0 10.28 0 13 0 C13 8.91 13 17.82 13 27 C10.36 27 7.72 27 5 27 C4.67 26.34 4.34 25.68 4 25 C3.01 25.66 2.02 26.32 1 27 C-2.11400933 27.67025344 -4.8917622 27.71484174 -8 27 C-11.40923421 24.29661138 -14.69682609 20.48503205 -15.23828125 16.046875 C-15.41759456 10.49760006 -14.81427422 7.32971668 -11 3 C-7.31511909 0.09088349 -4.65518882 -0.49523285 0 0 Z " fill="#EEEDE1" transform="translate(232,291)"/>
<path d="M0 0 C3.63 0 7.26 0 11 0 C13.01367112 5.32827067 15.01451892 10.66115762 17 16 C17.38357666 17.03133057 17.38357666 17.03133057 17.77490234 18.08349609 C18.48090451 19.99096517 19.17815482 21.90166664 19.875 23.8125 C20.28492188 24.93269531 20.69484375 26.05289062 21.1171875 27.20703125 C22 30 22 30 22 33 C19.03 33 16.06 33 13 33 C12.505 30.525 12.505 30.525 12 28 C7.71 28 3.42 28 -1 28 C-1.33 29.65 -1.66 31.3 -2 33 C-4.97 33 -7.94 33 -11 33 C-8.8225499 25.54034445 -6.3910036 18.2048511 -3.8125 10.875 C-3.44447266 9.823125 -3.07644531 8.77125 -2.69726562 7.6875 C-1.80014879 5.12430905 -0.90035499 2.5620553 0 0 Z " fill="#EBEBDE" transform="translate(162,285)"/>
<path d="M0 0 C5.57894737 3.15789474 5.57894737 3.15789474 7 6 C7.08400529 7.59447464 7.10727467 9.19240545 7.09765625 10.7890625 C7.09443359 11.73007812 7.09121094 12.67109375 7.08789062 13.640625 C7.07951172 14.62546875 7.07113281 15.6103125 7.0625 16.625 C7.05798828 17.61757813 7.05347656 18.61015625 7.04882812 19.6328125 C7.03702145 22.0886016 7.020554 24.54427104 7 27 C4.36 27 1.72 27 -1 27 C-1.33 21.06 -1.66 15.12 -2 9 C-4.97 8.505 -4.97 8.505 -8 8 C-11.02093215 11.02093215 -10.46676834 14.56372072 -10.625 18.625 C-10.68300781 19.82769531 -10.68300781 19.82769531 -10.7421875 21.0546875 C-10.83653931 23.03607556 -10.91936215 25.01800645 -11 27 C-13.64 27 -16.28 27 -19 27 C-19 18.42 -19 9.84 -19 1 C-16.36 1 -13.72 1 -11 1 C-10.67 1.66 -10.34 2.32 -10 3 C-9.195625 2.2575 -9.195625 2.2575 -8.375 1.5 C-5.26366038 -0.4650566 -3.63288013 -0.50860322 0 0 Z " fill="#F0F0E3" transform="translate(206,291)"/>
<path d="M0 0 C3.05071175 -0.287803 5.96060262 -0.4472872 9 0 C11.10361696 2.4223468 12 3.78245634 12 7 C12.66 7 13.32 7 14 7 C14.309375 6.030625 14.61875 5.06125 14.9375 4.0625 C16 1 16 1 17 0 C19.67058851 -0.14115161 22.32432238 -0.04247107 25 0 C23.63968068 4.08095797 21.61869588 6.96930897 18.92578125 10.25390625 C17.82556271 11.94617388 17.82556271 11.94617388 18.1640625 13.85546875 C19.24500524 16.62854149 20.60938536 19.15294405 22.0625 21.75 C22.61035156 22.73484375 23.15820312 23.7196875 23.72265625 24.734375 C24.14417969 25.48203125 24.56570313 26.2296875 25 27 C16.96498906 27.78774617 16.96498906 27.78774617 12.9375 24.5 C11.9784375 23.2625 11.9784375 23.2625 11 22 C10.505 23.2375 10.505 23.2375 10 24.5 C8 27 8 27 6.01953125 27.33203125 C4.01004942 27.31424822 2.0028436 27.16416751 0 27 C1.11973556 23.64079333 2.55751314 21.23015393 4.75 18.5 C6.79809194 15.83738966 6.79809194 15.83738966 6.625 12.5625 C6.08875 11.716875 5.5525 10.87125 5 10 C4.12395728 8.60482085 3.24903098 7.20894031 2.375 5.8125 C1.92898438 5.13832031 1.48296875 4.46414063 1.0234375 3.76953125 C0 2 0 2 0 0 Z " fill="#EAE9DD" transform="translate(324,291)"/>
<path d="M0 0 C2.64 0 5.28 0 8 0 C8 2.31 8 4.62 8 7 C9.65 7 11.3 7 13 7 C13 8.98 13 10.96 13 13 C11.35 13 9.7 13 8 13 C8.33 16.96 8.66 20.92 9 25 C10.32 25.33 11.64 25.66 13 26 C13 28.31 13 30.62 13 33 C5.88442211 33.48241206 5.88442211 33.48241206 2.25 31.5 C-0.37015627 28.58871525 -0.52711831 26.81820554 -0.43945312 22.9609375 C-0.39755859 22.23132813 -0.35566406 21.50171875 -0.3125 20.75 C-0.28994141 20.00492187 -0.26738281 19.25984375 -0.24414062 18.4921875 C-0.18543561 16.660591 -0.09575757 14.83003347 0 13 C-0.66 13 -1.32 13 -2 13 C-2 11.02 -2 9.04 -2 7 C-1.34 7 -0.68 7 0 7 C0 4.69 0 2.38 0 0 Z " fill="#F3F3E6" transform="translate(295,285)"/>
<path d="M0 0 C2.64 0 5.28 0 8 0 C8 11.55 8 23.1 8 35 C5.36 35 2.72 35 0 35 C0 23.45 0 11.9 0 0 Z " fill="#F4F4E7" transform="translate(251,283)"/>
<path d="M0 0 C2.64 0 5.28 0 8 0 C8 8.58 8 17.16 8 26 C5.36 26 2.72 26 0 26 C0 17.42 0 8.84 0 0 Z " fill="#F4F4E7" transform="translate(313,292)"/>
<path d="M0 0 C2 3 2 3 1.75 6.5625 C1 10 1 10 -1 12 C-4 12.25 -4 12.25 -7 12 C-9 10 -9 10 -9.3125 6.0625 C-9.23330121 3.50018618 -9.11578846 2.21227884 -7.875 -0.0625 C-4.97366536 -1.51316732 -3.03659258 -0.90451694 0 0 Z " fill="#1C0D0B" transform="translate(235,299)"/>
<path d="M0 0 C2.4375 0.8125 2.4375 0.8125 4.4375 2.8125 C4.10778521 6.10964793 3.8148161 7.4351839 1.4375 9.8125 C-1.6875 9.4375 -1.6875 9.4375 -4.5625 8.8125 C-5.89091008 3.37809513 -5.89091008 3.37809513 -4.4375 0.875 C-2.5625 -0.1875 -2.5625 -0.1875 0 0 Z " fill="#E2E1D5" transform="translate(317.5625,280.1875)"/>
<path d="M0 0 C2.3129482 2.3129482 2.49580975 3.47904875 3.125 6.625 C3.29257813 7.44226563 3.46015625 8.25953125 3.6328125 9.1015625 C3.81457031 10.04128906 3.81457031 10.04128906 4 11 C1.69 11 -0.62 11 -3 11 C-2.69078116 9.54096742 -2.37751201 8.08279278 -2.0625 6.625 C-1.88847656 5.81289063 -1.71445313 5.00078125 -1.53515625 4.1640625 C-1 2 -1 2 0 0 Z " fill="#291B18" transform="translate(167,295)"/>
</svg>
